<svg xmlns="http://www.w3.org/2000/svg" viewBox="0 0 440 440" fill="none" shape-rendering="auto"><desc>"Face Generator" by "The Visual Team", licensed under "CC BY 4.0". / Remix of the original. - Created with dicebear.com</desc><metadata xmlns:dc="http://purl.org/dc/elements/1.1/" xmlns:cc="http://creativecommons.org/ns#" xmlns:rdf="http://www.w3.org/1999/02/22-rdf-syntax-ns#"><rdf:RDF><cc:Work><dc:title>Face Generator</dc:title><dc:creator><cc:Agent rdf:about="https://thevisual.team/"><dc:title>The Visual Team</dc:title></cc:Agent></dc:creator><dc:source>https://www.figma.com/community/file/986078800058673824</dc:source><cc:license rdf:resource="https://creativecommons.org/licenses/by/4.0/"/></cc:Work></rdf:RDF></metadata><mask id="viewboxMask"><rect width="440" height="440" rx="0" ry="0" x="0" y="0" fill="#fff"/></mask><g mask="url(#viewboxMask)"><rect fill="#ffdfbf" width="440" height="440" x="0" y="0"/><g transform="matrix(.71048 0 0 .71048 24 2)"><path d="m37 283 89.6 81h308.5l83.9-67.5-101.8-33.1 18-151.8-108.9 64L272.8 75l-64.3 94.5-116-52.7 34.1 134.8L37 283Z" fill="#f59797"/></g><g transform="translate(81.7 150.7) scale(.71856)"><path d="M293.1 88.7C258 38.7 171.6 25.4 120.3 58 69 91 57.5 145.2 65 204.8c3.1 24.1 7 43 9 63.5 6.6 63.2 93 94.7 118.6 94.7 40.4 0 108.3-44.3 116.8-94.7 7.7-46 7-42.4 7.5-63.5.6-21 11.3-66.1-23.9-116.1Z" fill="#a66637"/><path d="M76.2 279.7c22.6 47.6 92.6 71.3 115.6 71.3 39 0 102.8-38.9 118-85.2l-.5 2.8C301 319 233 363.5 192.6 363.5c-24 0-101.7-27.9-116.4-83.8Z" fill="#000" fill-opacity=".2"/></g><g transform="translate(199.5 333.4) scale(.71856)"><path d="M59 15a31 31 0 0 1-62 0C-3-2 10.8 11 28 11c17 0 31-13 31 4.1Z" fill="#DE8383"/><path fill-rule="evenodd" clip-rule="evenodd" d="M56.3 7A31 31 0 0 1-.3 7c2.5-1.7 6.8-.5 12.1 1 4.7 1.3 10.3 2.9 16.2 2.9 6 0 11.5-1.6 16.2-3 5.3-1.4 9.5-2.6 12-1Z" fill="#F9F9F9"/></g><g transform="translate(280.7 235.4) scale(.71856)"><rect x="20" y="22" width="88" height="88.1" rx="44" fill="#a66637"/><rect x="29.8" y="31.8" width="68.4" height="68.5" rx="34.2" fill="#000" fill-opacity=".2"/><rect x="23.9" y="49.4" width="37.2" height="37.2" rx="18.6" fill="#a66637"/></g><g transform="matrix(-.71856 0 0 .71856 161.5 235.4)"><rect x="20" y="22" width="88" height="88.1" rx="44" fill="#a66637"/><rect x="29.8" y="31.8" width="68.4" height="68.5" rx="34.2" fill="#000" fill-opacity=".2"/><rect x="23.9" y="49.4" width="37.2" height="37.2" rx="18.6" fill="#a66637"/></g><g transform="translate(114.8 215.5) scale(.71856)"><path d="M183.1 52.7c3.7-3 9.4-8.7 20.4-8.7 9.4 0 17.3 6.4 18.7 8.7M104.3 52.7C100.6 49.7 95 44 84 44c-9.4 0-17.2 6.4-18.7 8.7" stroke="#000" stroke-width="3.7" stroke-linecap="round"/><circle cx="87.2" cy="92" r="28.2" fill="#fff"/><circle cx="200.8" cy="92" r="28.2" fill="#fff"/><circle cx="87.2" cy="92" r="15.2" fill="#000"/><circle cx="200.8" cy="92" r="15.2" fill="#000"/><path d="M228.3 86.6h-56a28.2 28.2 0 0 1 56 0ZM115 86.6H59a28.2 28.2 0 0 1 56 0Z" fill="#CD9166"/></g><g transform="translate(127.7 288.7) scale(.71856)"/><g transform="translate(193 279.4) scale(.71856)"><path d="M37 14v27c-3.7.7-11 4-11 10.5 0 8.2 7.3 10.5 11 11.7" stroke="#000" stroke-opacity=".5" stroke-width="4" stroke-linecap="round" stroke-linejoin="round"/></g><g transform="matrix(.52237 0 0 .52237 122.9 244.8)"><path d="M10 94V8h32l-3.7 76.9L10 94Z" fill="#f59797"/></g><g transform="matrix(-.52237 0 0 .52237 315.7 244.8)"><path d="M10 94V8h32l-3.7 76.9L10 94Z" fill="#f59797"/></g><g transform="matrix(.52237 0 0 .52237 108.7 145.6)"><g fill="#f59797"><path d="M276 196.5a63.5 63.5 0 0 0-18.6-45c-5.9-5.8-12.9-61-20.6-64.2a63.5 63.5 0 0 0-48.6 0c-7.7 3.2-14.7 58.4-20.6 64.3a63.5 63.5 0 0 0-18.6 44.9h127Z"/><path d="M374 132c6.5 15.9 11.5 34.5 11.5 70-11 0-38.5 11-92.5-18-54.8-29.5-68.9-59.5-82-79-13 27-37 51.3-72.5 73.5C103 200.7 54.2 199.5 38 202c0-23.1 2-46 10.9-67.4A176 176 0 0 1 211 26a175 175 0 0 1 124 51.5c16.4 16.4 30.2 33.1 39 54.5Z"/></g></g></g><script xmlns="" id="bw-fido2-page-script"/></svg>