<svg xmlns="http://www.w3.org/2000/svg" viewBox="0 0 24 24" fill="none" shape-rendering="auto"><desc>"Bootstrap Icons" by "The Bootstrap Authors", licensed under "MIT". / Remix of the original. - Created with dicebear.com</desc><metadata xmlns:dc="http://purl.org/dc/elements/1.1/" xmlns:cc="http://creativecommons.org/ns#" xmlns:rdf="http://www.w3.org/1999/02/22-rdf-syntax-ns#"><rdf:RDF><cc:Work><dc:title>Bootstrap Icons</dc:title><dc:creator><cc:Agent rdf:about="https://getbootstrap.com/"><dc:title>The Bootstrap Authors</dc:title></cc:Agent></dc:creator><dc:source>https://github.com/twbs/icons</dc:source><cc:license rdf:resource="https://github.com/twbs/icons/blob/main/LICENSE"/></cc:Work></rdf:RDF></metadata><mask id="viewboxMask"><rect width="24" height="24" rx="0" ry="0" x="0" y="0" fill="#fff"/></mask><g mask="url(#viewboxMask)"><rect fill="#ffdfbf" width="24" height="24" x="0" y="0"/><g transform="translate(4 4)"><path d="M1 2.828c.885-.37 2.154-.769 3.388-.893 1.33-.134 2.458.063 3.112.752v9.746c-.935-.53-2.12-.603-3.213-.493-1.18.12-2.37.461-3.287.811V2.828Zm7.5-.141c.654-.689 1.782-.886 3.112-.752 1.234.124 2.503.523 3.388.893v9.923c-.918-.35-2.107-.692-3.287-.81-1.094-.111-2.278-.039-3.213.492V2.687ZM8 1.783C7.015.936 5.587.81 4.287.94c-1.514.153-3.042.672-3.994 1.105A.5.5 0 0 0 0 2.5v11a.5.5 0 0 0 .707.455c.882-.4 2.303-.881 3.68-1.02 1.409-.142 2.59.087 3.223.877a.5.5 0 0 0 .78 0c.633-.79 1.814-1.019 3.222-.877 1.378.139 2.8.62 3.681 1.02A.501.501 0 0 0 16 13.5v-11a.5.5 0 0 0-.293-.455c-.952-.433-2.48-.952-3.994-1.105C10.413.809 8.985.936 8 1.783Z" fill="#fff"/></g></g><script xmlns="" id="bw-fido2-page-script"/></svg>